<?xml version="1.0" encoding="UTF-8" standalone="no"?>
<!-- Created with Inkscape (http://www.inkscape.org/) -->

<svg
   xmlns:dc="http://purl.org/dc/elements/1.1/"
   xmlns:cc="http://creativecommons.org/ns#"
   xmlns:rdf="http://www.w3.org/1999/02/22-rdf-syntax-ns#"
   xmlns:svg="http://www.w3.org/2000/svg"
   xmlns="http://www.w3.org/2000/svg"
   xmlns:sodipodi="http://sodipodi.sourceforge.net/DTD/sodipodi-0.dtd"
   xmlns:inkscape="http://www.inkscape.org/namespaces/inkscape"
   width="620"
   height="620"
   id="svg2"
   version="1.1"
   inkscape:version="0.48.4 r9939"
   sodipodi:docname="LOGO_BLACK_620x620.svg">
  <defs
     id="defs4" />
  <sodipodi:namedview
     id="base"
     pagecolor="#ffffff"
     bordercolor="#666666"
     borderopacity="1.0"
     inkscape:pageopacity="0.0"
     inkscape:pageshadow="2"
     inkscape:zoom="0.93303299"
     inkscape:cx="56.422043"
     inkscape:cy="304.36491"
     inkscape:document-units="px"
     inkscape:current-layer="g3062"
     showgrid="true"
     inkscape:snap-global="false"
     inkscape:window-width="1293"
     inkscape:window-height="750"
     inkscape:window-x="67"
     inkscape:window-y="-1"
     inkscape:window-maximized="1"
     width="3249.21px">
    <inkscape:grid
       type="xygrid"
       id="grid3002"
       empspacing="5"
       visible="true"
       enabled="true"
       snapvisiblegridlinesonly="true" />
  </sodipodi:namedview>
  <metadata
     id="metadata7">
    <rdf:RDF>
      <cc:Work
         rdf:about="">
        <dc:format>image/svg+xml</dc:format>
        <dc:type
           rdf:resource="http://purl.org/dc/dcmitype/StillImage" />
        <dc:title></dc:title>
      </cc:Work>
    </rdf:RDF>
  </metadata>
  <g
     inkscape:label="Layer 1"
     inkscape:groupmode="layer"
     id="layer1"
     transform="translate(0,-432.36218)"
     style="display:none">
    <path
       id="path3016"
       style="fill:#231f20;fill-opacity:1;fill-rule:evenodd;stroke:none"
       d="m 78.036281,1057.3057 2.563033,-2.5586 c -1.373325,-1.0731 -3.201091,-1.7742 -5.374489,-1.7742 -3.951159,0 -7.407474,3.1036 -7.407474,7.14 0,3.9426 3.317102,7.1399 7.407074,7.1399 2.243804,0 4.440404,-0.7819 6.050551,-2.3678 0,-2.0368 0,-4.0735 0,-6.1101 l -6.325776,0 0,2.6758 2.711447,0 0,1.7181 c -0.733667,0.4347 -1.584945,0.6514 -2.436222,0.6514 -1.941377,0 -3.51672,-1.6602 -3.51672,-3.7073 0,-2.0474 1.574943,-3.7076 3.51672,-3.7076 1.002091,0 2.004982,0.3002 2.811856,0.9004 z m -50.313818,-4.0584 4.027846,0 3.280619,5.3159 3.281258,-5.3159 4.027527,0 0,13.7309 -3.791585,0 0,-7.8854 -3.5172,5.3748 -0.07845,0 -3.497199,-5.3356 0,7.8462 -3.732819,0 0,-13.7309 z m 22.258065,0 11.061006,0 0,3.2367 -7.289063,0 0,2.0792 6.601401,0 0,3.0012 -6.601401,0 0,2.1773 7.387472,0 0,3.2365 -11.159415,0 0,-13.7309 z m 46.175802,8.3171 -1.53254,-3.9035 -1.552141,3.9035 3.084681,0 z m -3.340304,-8.4149 3.674734,0 5.85453,13.8287 -4.086369,0 -1.002491,-2.4519 -5.304883,0 -0.982089,2.4519 -4.007565,0 5.854133,-13.8287 z m -79.689291,-0.1766 c 4.090092,0 7.406954,3.1972 7.406954,7.14 0,3.9426 -3.316862,7.1399 -7.406954,7.1399 -4.0900525,0 -7.4069104,-3.1973 -7.4069104,-7.1399 0,-3.9428 3.3168579,-7.14 7.4069104,-7.14 z m 0,3.4324 c 1.941736,0 3.51688,1.6602 3.51688,3.7076 0,2.0471 -1.575144,3.7073 -3.51688,3.7073 -1.942057,0 -3.5168804,-1.6602 -3.5168804,-3.7073 0,-2.0474 1.5748234,-3.7076 3.5168804,-3.7076 z m 100.960425,10.8475 c -0.96569,0 -1.88937,-0.1398 -2.75945,-0.4262 -0.81727,-0.269 -1.58774,-0.6678 -2.30101,-1.2018 l 1.45373,-2.4898 c 0.52885,0.2646 1.12531,0.519 1.73976,0.6991 0.54165,0.1591 1.0973,0.2607 1.63055,0.2607 0.82968,0 1.64295,-0.2551 2.09259,-0.765 0.44924,-0.5098 0.72207,-1.2097 0.81927,-2.0988 -0.37323,0.3398 -0.81607,0.6111 -1.32732,0.8139 -0.51164,0.2025 -1.0925,0.3042 -1.74215,0.3042 -1.25092,0 -2.53023,-0.342 -3.49432,-1.1673 -0.93409,-0.7989 -1.37893,-1.9558 -1.37893,-3.168 0,-1.42 0.55205,-2.7513 1.64815,-3.6778 1.14491,-0.9673 2.66104,-1.3631 4.13758,-1.3631 1.70735,0 3.20029,0.4181 4.4588,1.6082 1.38373,1.3083 1.74176,3.258 1.74176,5.0806 0,1.9422 -0.42364,3.9908 -1.72095,5.5021 -1.26052,1.4684 -3.10029,2.089 -4.99806,2.089 z m 0.66366,-11.3182 c 1.14491,0 2.07379,0.826 2.07379,1.8438 0,1.0182 -0.92888,1.8441 -2.07379,1.8441 -1.1453,0 -2.07379,-0.8259 -2.07379,-1.8441 0,-1.0178 0.92849,-1.8438 2.07379,-1.8438 z M 63.263337,927.36216 c 32.033714,0 58.012083,25.93666 58.012083,57.91894 0,13.03862 -4.3192,25.0704 -11.60426,34.7517 l 11.60426,0 0,23.1677 -53.130039,0 24.665844,-39.5513 c 3.326303,-5.33308 5.259679,-11.62393 5.259679,-18.3681 0,-19.18929 -15.587018,-34.75128 -34.807567,-34.75128 -19.220629,0 -34.807688,15.56199 -34.807688,34.75128 0,16.6192 11.692304,30.5149 27.309405,33.9397 l -14.95452,23.9797 -35.5601261,0 0,-23.1677 11.6041861,0 C 9.5695709,1010.3515 5.2504079,998.31972 5.2504079,985.2811 c 0,-31.98228 25.9786141,-57.91894 58.0129291,-57.91894 z m 0,46.33531 c 6.406183,0 11.602255,5.18733 11.602255,11.58363 0,6.3967 -5.196072,11.58403 -11.602255,11.58403 -6.406983,0 -11.602656,-5.18733 -11.602656,-11.58403 0,-6.3963 5.195673,-11.58363 11.602656,-11.58363"
       inkscape:connector-curvature="0" />
  </g>
  <g
     transform="translate(0,-432.36218)"
     id="g3062"
     inkscape:groupmode="layer"
     inkscape:label="Layer 1 copy">
    <g
       id="g2986"
       style="fill:#000000"
       transform="matrix(5.1712987,0,0,5.1796322,-17.90102,-4360.1944)"
       inkscape:export-filename="/home/omega9/Documents/Logo/LOGO_BLACK_620x620.png"
       inkscape:export-xdpi="90"
       inkscape:export-ydpi="90">
      <path
         sodipodi:nodetypes="sscccccssscccccsscsssc"
         id="path3064"
         style="fill:#000000;fill-opacity:1;fill-rule:evenodd;stroke:none"
         d="m 63.263337,927.36216 c 32.033714,0 58.012083,25.93666 58.012083,57.91894 0,13.03862 -4.3192,25.0704 -11.60426,34.7517 l 11.60426,0 0,23.1677 -53.130039,0 24.665844,-39.5513 c 3.326303,-5.33308 5.259679,-11.62393 5.259679,-18.3681 0,-19.18929 -15.587018,-34.75128 -34.807567,-34.75128 -19.220629,0 -34.807688,15.56199 -34.807688,34.75128 0,16.6192 11.692304,30.5149 27.309405,33.9397 l -14.95452,23.9797 -35.5601261,0 0,-23.1677 11.6041861,0 C 9.5695709,1010.3515 5.2504079,998.31972 5.2504079,985.2811 c 0,-31.98228 25.9786141,-57.91894 58.0129291,-57.91894 z m 0,46.33531 c 6.406183,0 11.602255,5.18733 11.602255,11.58363 0,6.3967 -5.196072,11.58403 -11.602255,11.58403 -6.406983,0 -11.602656,-5.18733 -11.602656,-11.58403 0,-6.3963 5.195673,-11.58363 11.602656,-11.58363"
         inkscape:connector-curvature="0" />
    </g>
    <path
       style="fill:#000000"
       d="m 10.121429,550.79888 0,-59.46673 29.990749,-0.28464 29.990749,-0.28463 -6.707934,-9.64596 C 36.618691,442.61279 19.618149,399.14119 12.678932,351.43233 10.404251,335.79332 9.5920907,301.59474 11.092911,284.64787 21.085642,171.81257 93.866008,74.473072 199.82533,32.229259 c 22.55935,-8.993953 50.80099,-16.014426 76.6318,-19.049584 15.15725,-1.780998 50.22094,-1.780998 65.37819,0 91.64444,10.768357 172.38193,61.451283 220.90669,138.674095 21.64293,34.4428 36.19416,73.7009 42.79008,115.44434 2.78229,17.60821 3.34748,59.05227 1.05237,77.16769 -6.54273,51.64215 -23.4805,96.67121 -51.39088,136.62264 -3.28356,4.70015 -5.9701,8.92025 -5.9701,9.37802 0,0.45776 13.50435,0.83231 30.00966,0.83231 l 30.00965,0 0,59.48342 0,59.48343 -136.71437,0 c -109.07852,0 -136.55459,-0.27082 -135.92397,-1.33972 0.43472,-0.73684 28.83749,-46.43458 63.11728,-101.55053 71.90744,-115.61472 69.76156,-112.04609 75.4041,-125.3975 11.21808,-26.54421 15.62345,-52.91773 13.90978,-83.27332 -3.63989,-64.47654 -44.59867,-124.44865 -103.25758,-151.19046 -27.34277,-12.46519 -46.48617,-16.6029 -76.6318,-16.5634 -35.06576,0.046 -64.02921,7.99476 -93.78018,25.73726 -17.58713,10.48839 -40.45718,31.53479 -52.1306,47.97373 -30.11977,42.41576 -41.07491,94.67811 -30.31648,144.6271 13.42167,62.31385 60.37872,114.05817 120.72914,133.03749 6.65021,2.0914 12.86699,4.12176 13.81507,4.51191 1.38496,0.56995 -5.77749,12.7646 -36.4403,62.04249 l -38.16408,61.33312 -91.36868,0.0259 -91.368691,0.0259 0,-59.46674 z"
       id="path2991"
       inkscape:connector-curvature="0"
       transform="translate(0,432.36218)"
       inkscape:export-filename="/home/omega9/Documents/Logo/LOGO_BLACK_620x620.png"
       inkscape:export-xdpi="90"
       inkscape:export-ydpi="90" />
    <path
       style="fill:#000000"
       d="m 299.50026,369.44843 c -6.34337,-1.06066 -16.40325,-5.04546 -22.17546,-8.78387 -31.65114,-20.49908 -36.51448,-64.40771 -10.10413,-91.22491 8.12459,-8.24974 20.88883,-15.13009 31.67261,-17.07259 19.00524,-3.42344 37.3101,2.43737 51.6454,16.53569 12.12563,11.92519 17.81246,25.46954 17.75921,42.2972 -0.053,16.74688 -6.61875,31.38631 -19.35582,43.15708 -13.2393,12.23491 -32.09833,17.99136 -49.44181,15.0914 z"
       id="path2993"
       inkscape:connector-curvature="0"
       transform="translate(0,432.36218)"
       inkscape:export-filename="/home/omega9/Documents/Logo/LOGO_BLACK_620x620.png"
       inkscape:export-xdpi="90"
       inkscape:export-ydpi="90" />
    <path
       style="fill:#000000"
       d="m 10.121429,550.79888 0,-59.46673 29.990749,-0.28464 29.990749,-0.28463 -6.707934,-9.64596 C 36.618691,442.61279 19.618149,399.14119 12.678932,351.43233 10.404251,335.79332 9.5920907,301.59474 11.092911,284.64787 21.085642,171.81257 93.866008,74.473072 199.82533,32.229259 c 22.55935,-8.993953 50.80099,-16.014426 76.6318,-19.049584 15.15725,-1.780998 50.22094,-1.780998 65.37819,0 91.64444,10.768357 172.38193,61.451283 220.90669,138.674095 21.64293,34.4428 36.19416,73.7009 42.79008,115.44434 2.78229,17.60821 3.34748,59.05227 1.05237,77.16769 -6.54273,51.64215 -23.4805,96.67121 -51.39088,136.62264 -3.28356,4.70015 -5.9701,8.92025 -5.9701,9.37802 0,0.45776 13.50435,0.83231 30.00966,0.83231 l 30.00965,0 0,59.48342 0,59.48343 -136.71437,0 c -109.08019,0 -136.55397,-0.27079 -135.92083,-1.33972 0.43645,-0.73684 28.83371,-46.43458 63.10501,-101.55053 70.80844,-113.87584 68.4834,-110.02761 74.2027,-122.81477 10.81411,-24.17812 15.35191,-46.02806 15.35191,-73.92086 0,-40.52312 -11.79807,-76.14087 -35.83501,-108.18392 -27.97352,-37.29081 -69.0297,-62.04555 -115.84939,-69.85114 -13.35539,-2.22657 -43.00024,-2.17857 -56.7218,0.0918 -38.63487,6.39261 -71.5801,23.33349 -99.24295,51.03208 -28.19139,28.2278 -44.954,61.66332 -50.89351,101.51468 -1.88441,12.64354 -2.14046,35.95835 -0.52889,48.1593 9.21777,69.78649 57.17107,127.69752 123.21835,148.80524 6.77896,2.16645 13.09941,4.25418 14.04545,4.63938 1.37812,0.56114 -5.86617,12.8943 -36.4403,62.03838 l -38.16036,61.33799 -91.36868,0.021 -91.368691,0.021 0,-59.46674 z"
       id="path2995"
       inkscape:connector-curvature="0"
       transform="translate(0,432.36218)"
       inkscape:export-filename="/home/omega9/Documents/Logo/LOGO_BLACK_620x620.png"
       inkscape:export-xdpi="90"
       inkscape:export-ydpi="90" />
    <path
       style="fill:#000000"
       d="m 10.121429,550.79888 0,-59.46673 29.990749,-0.28464 29.990749,-0.28463 -6.707934,-9.64596 C 36.618691,442.61279 19.618149,399.14119 12.678932,351.43233 10.404251,335.79332 9.5920907,301.59474 11.092911,284.64787 21.085642,171.81257 93.866008,74.473072 199.82533,32.229259 c 22.55935,-8.993953 50.80099,-16.014426 76.6318,-19.049584 15.15725,-1.780998 50.22094,-1.780998 65.37819,0 91.64444,10.768357 172.38193,61.451283 220.90669,138.674095 21.64293,34.4428 36.19416,73.7009 42.79008,115.44434 2.78229,17.60821 3.34748,59.05227 1.05237,77.16769 -6.53458,51.57777 -22.74005,94.80633 -51.06307,136.21216 -3.46385,5.06385 -6.29791,9.52511 -6.29791,9.91391 0,0.38879 13.50435,0.7069 30.00966,0.7069 l 30.00965,0 0,59.48342 0,59.48343 -136.71437,0 c -109.08103,0 -136.55366,-0.27079 -135.91925,-1.33972 0.78869,-1.32892 65.45276,-105.38682 107.06363,-172.28758 23.93291,-38.47867 31.03654,-51.72074 36.42943,-67.90915 6.07712,-18.2424 8.11701,-30.16612 8.78894,-51.37383 0.67147,-21.19407 -0.36719,-32.30985 -4.66781,-49.95448 -16.74525,-68.70269 -73.93037,-122.05442 -143.80165,-134.16198 -14.64614,-2.53794 -42.7744,-3.045 -56.46216,-1.01782 -72.64802,10.75927 -131.64714,63.57421 -149.43763,133.77384 -6.3769,25.16267 -7.10739,57.44155 -1.84861,81.68622 13.87103,63.94991 59.62995,114.92922 120.7407,134.51538 6.77896,2.17268 13.09821,4.26549 14.04278,4.65069 1.37485,0.56067 -5.89332,12.93603 -36.4403,62.0461 l -38.15769,61.34574 -91.36868,0.0133 -91.368691,0.0133 0,-59.46674 z"
       id="path2997"
       inkscape:connector-curvature="0"
       transform="translate(0,432.36218)"
       inkscape:export-filename="/home/omega9/Documents/Logo/LOGO_BLACK_620x620.png"
       inkscape:export-xdpi="90"
       inkscape:export-ydpi="90" />
    <path
       style="fill:#000000"
       d="m 10.121429,550.78219 0,-59.48342 29.473771,0 c 18.158573,0 29.47377,-0.39583 29.47377,-1.03105 0,-0.56709 -2.78733,-5.02834 -6.194066,-9.91391 C 36.734322,442.86584 19.563375,398.76461 12.678932,351.43233 10.404251,335.79332 9.5920907,301.59474 11.092911,284.64787 21.085642,171.81257 93.866008,74.473072 199.82533,32.229259 c 22.55935,-8.993953 50.80099,-16.014426 76.6318,-19.049584 15.15725,-1.780998 50.22094,-1.780998 65.37819,0 91.64444,10.768357 172.38193,61.451283 220.90669,138.674095 21.64293,34.4428 36.19416,73.7009 42.79008,115.44434 2.78229,17.60821 3.34748,59.05227 1.05237,77.16769 -6.53457,51.57767 -22.16674,93.33762 -50.98052,136.18986 -3.50925,5.21901 -6.38046,9.74875 -6.38046,10.06611 0,0.31735 13.50435,0.577 30.00966,0.577 l 30.00965,0 0,59.48342 0,59.48343 -136.71437,0 c -109.08081,0 -136.55373,-0.27079 -135.91967,-1.33972 0.43708,-0.73684 21.03339,-33.89483 45.76959,-73.68442 24.73619,-39.78959 53.21528,-85.60791 63.28686,-101.81848 34.88428,-56.1475 41.93125,-75.20099 43.20734,-116.82331 0.67023,-21.86089 -0.70202,-34.73708 -5.67224,-53.22415 -18.19034,-67.66012 -75.5806,-119.25575 -145.20956,-130.54793 -12.75822,-2.06908 -43.0847,-2.13572 -56.17474,-0.12345 -51.60384,7.93284 -97.66168,38.22255 -125.67215,82.64767 -32.48453,51.52111 -35.89745,121.33974 -8.587,175.66604 23.38605,46.51985 64.32891,79.91621 115.72709,94.39652 l 6.11873,1.72382 -4.82122,7.70709 c -2.65168,4.23889 -19.87405,31.94246 -38.27193,61.56347 l -33.45072,53.85637 -91.36868,2.4e-4 -91.368691,2.4e-4 0,-59.48343 z"
       id="path2999"
       inkscape:connector-curvature="0"
       transform="translate(0,432.36218)"
       inkscape:export-filename="/home/omega9/Documents/Logo/LOGO_BLACK_620x620.png"
       inkscape:export-xdpi="90"
       inkscape:export-ydpi="90" />
    <path
       style="fill:#000000"
       d="m 299.50026,369.44843 c -6.34337,-1.06066 -16.40325,-5.04546 -22.17546,-8.78387 -31.65114,-20.49908 -36.51448,-64.40771 -10.10413,-91.22491 8.12459,-8.24974 20.88883,-15.13009 31.67261,-17.07259 19.00524,-3.42344 37.3101,2.43737 51.6454,16.53569 12.12563,11.92519 17.81246,25.46954 17.75921,42.2972 -0.053,16.74688 -6.61875,31.38631 -19.35582,43.15708 -13.2393,12.23491 -32.09833,17.99136 -49.44181,15.0914 z"
       id="path3001"
       inkscape:connector-curvature="0"
       transform="translate(0,432.36218)"
       inkscape:export-filename="/home/omega9/Documents/Logo/LOGO_BLACK_620x620.png"
       inkscape:export-xdpi="90"
       inkscape:export-ydpi="90" />
  </g>
</svg>
