<?xml version="1.0" encoding="UTF-8" standalone="no"?>
<!-- Created with Inkscape (http://www.inkscape.org/) -->

<svg
   xmlns:dc="http://purl.org/dc/elements/1.1/"
   xmlns:cc="http://creativecommons.org/ns#"
   xmlns:rdf="http://www.w3.org/1999/02/22-rdf-syntax-ns#"
   xmlns:svg="http://www.w3.org/2000/svg"
   xmlns="http://www.w3.org/2000/svg"
   xmlns:sodipodi="http://sodipodi.sourceforge.net/DTD/sodipodi-0.dtd"
   xmlns:inkscape="http://www.inkscape.org/namespaces/inkscape"
   width="126"
   height="128"
   id="svg2"
   version="1.1"
   inkscape:version="0.48.3.1 r9886"
   sodipodi:docname="drawing.svg">
  <defs
     id="defs4" />
  <sodipodi:namedview
     id="base"
     pagecolor="#ffffff"
     bordercolor="#666666"
     borderopacity="1.0"
     inkscape:pageopacity="0.0"
     inkscape:pageshadow="2"
     inkscape:zoom="4.0307025"
     inkscape:cx="56.422043"
     inkscape:cy="64"
     inkscape:document-units="px"
     inkscape:current-layer="g3062"
     showgrid="true"
     inkscape:snap-global="false"
     inkscape:window-width="1360"
     inkscape:window-height="722"
     inkscape:window-x="-2"
     inkscape:window-y="23"
     inkscape:window-maximized="1">
    <inkscape:grid
       type="xygrid"
       id="grid3002"
       empspacing="5"
       visible="true"
       enabled="true"
       snapvisiblegridlinesonly="true" />
  </sodipodi:namedview>
  <metadata
     id="metadata7">
    <rdf:RDF>
      <cc:Work
         rdf:about="">
        <dc:format>image/svg+xml</dc:format>
        <dc:type
           rdf:resource="http://purl.org/dc/dcmitype/StillImage" />
        <dc:title></dc:title>
      </cc:Work>
    </rdf:RDF>
  </metadata>
  <g
     inkscape:label="Layer 1"
     inkscape:groupmode="layer"
     id="layer1"
     transform="translate(0,-924.36218)"
     style="display:none">
    <path
       id="path3016"
       style="fill:#231f20;fill-opacity:1;fill-rule:evenodd;stroke:none"
       d="m 78.036281,1057.3057 2.563033,-2.5586 c -1.373325,-1.0731 -3.201091,-1.7742 -5.374489,-1.7742 -3.951159,0 -7.407474,3.1036 -7.407474,7.14 0,3.9426 3.317102,7.1399 7.407074,7.1399 2.243804,0 4.440404,-0.7819 6.050551,-2.3678 0,-2.0368 0,-4.0735 0,-6.1101 l -6.325776,0 0,2.6758 2.711447,0 0,1.7181 c -0.733667,0.4347 -1.584945,0.6514 -2.436222,0.6514 -1.941377,0 -3.51672,-1.6602 -3.51672,-3.7073 0,-2.0474 1.574943,-3.7076 3.51672,-3.7076 1.002091,0 2.004982,0.3002 2.811856,0.9004 z m -50.313818,-4.0584 4.027846,0 3.280619,5.3159 3.281258,-5.3159 4.027527,0 0,13.7309 -3.791585,0 0,-7.8854 -3.5172,5.3748 -0.07845,0 -3.497199,-5.3356 0,7.8462 -3.732819,0 0,-13.7309 z m 22.258065,0 11.061006,0 0,3.2367 -7.289063,0 0,2.0792 6.601401,0 0,3.0012 -6.601401,0 0,2.1773 7.387472,0 0,3.2365 -11.159415,0 0,-13.7309 z m 46.175802,8.3171 -1.53254,-3.9035 -1.552141,3.9035 3.084681,0 z m -3.340304,-8.4149 3.674734,0 5.85453,13.8287 -4.086369,0 -1.002491,-2.4519 -5.304883,0 -0.982089,2.4519 -4.007565,0 5.854133,-13.8287 z m -79.689291,-0.1766 c 4.090092,0 7.406954,3.1972 7.406954,7.14 0,3.9426 -3.316862,7.1399 -7.406954,7.1399 -4.0900525,0 -7.4069104,-3.1973 -7.4069104,-7.1399 0,-3.9428 3.3168579,-7.14 7.4069104,-7.14 z m 0,3.4324 c 1.941736,0 3.51688,1.6602 3.51688,3.7076 0,2.0471 -1.575144,3.7073 -3.51688,3.7073 -1.942057,0 -3.5168804,-1.6602 -3.5168804,-3.7073 0,-2.0474 1.5748234,-3.7076 3.5168804,-3.7076 z m 100.960425,10.8475 c -0.96569,0 -1.88937,-0.1398 -2.75945,-0.4262 -0.81727,-0.269 -1.58774,-0.6678 -2.30101,-1.2018 l 1.45373,-2.4898 c 0.52885,0.2646 1.12531,0.519 1.73976,0.6991 0.54165,0.1591 1.0973,0.2607 1.63055,0.2607 0.82968,0 1.64295,-0.2551 2.09259,-0.765 0.44924,-0.5098 0.72207,-1.2097 0.81927,-2.0988 -0.37323,0.3398 -0.81607,0.6111 -1.32732,0.8139 -0.51164,0.2025 -1.0925,0.3042 -1.74215,0.3042 -1.25092,0 -2.53023,-0.342 -3.49432,-1.1673 -0.93409,-0.7989 -1.37893,-1.9558 -1.37893,-3.168 0,-1.42 0.55205,-2.7513 1.64815,-3.6778 1.14491,-0.9673 2.66104,-1.3631 4.13758,-1.3631 1.70735,0 3.20029,0.4181 4.4588,1.6082 1.38373,1.3083 1.74176,3.258 1.74176,5.0806 0,1.9422 -0.42364,3.9908 -1.72095,5.5021 -1.26052,1.4684 -3.10029,2.089 -4.99806,2.089 z m 0.66366,-11.3182 c 1.14491,0 2.07379,0.826 2.07379,1.8438 0,1.0182 -0.92888,1.8441 -2.07379,1.8441 -1.1453,0 -2.07379,-0.8259 -2.07379,-1.8441 0,-1.0178 0.92849,-1.8438 2.07379,-1.8438 z M 63.263337,927.36216 c 32.033714,0 58.012083,25.93666 58.012083,57.91894 0,13.03862 -4.3192,25.0704 -11.60426,34.7517 l 11.60426,0 0,23.1677 -53.130039,0 24.665844,-39.5513 c 3.326303,-5.33308 5.259679,-11.62393 5.259679,-18.3681 0,-19.18929 -15.587018,-34.75128 -34.807567,-34.75128 -19.220629,0 -34.807688,15.56199 -34.807688,34.75128 0,16.6192 11.692304,30.5149 27.309405,33.9397 l -14.95452,23.9797 -35.5601261,0 0,-23.1677 11.6041861,0 C 9.5695709,1010.3515 5.2504079,998.31972 5.2504079,985.2811 c 0,-31.98228 25.9786141,-57.91894 58.0129291,-57.91894 z m 0,46.33531 c 6.406183,0 11.602255,5.18733 11.602255,11.58363 0,6.3967 -5.196072,11.58403 -11.602255,11.58403 -6.406983,0 -11.602656,-5.18733 -11.602656,-11.58403 0,-6.3963 5.195673,-11.58363 11.602656,-11.58363"
       inkscape:connector-curvature="0" />
  </g>
  <g
     transform="translate(0,-924.36218)"
     id="g3062"
     inkscape:groupmode="layer"
     inkscape:label="Layer 1 copy">
    <path
       inkscape:connector-curvature="0"
       d="m 63.263337,927.36216 c 32.033714,0 58.012083,25.93666 58.012083,57.91894 0,13.03862 -4.3192,25.0704 -11.60426,34.7517 l 11.60426,0 0,23.1677 -53.130039,0 24.665844,-39.5513 c 3.326303,-5.33308 5.259679,-11.62393 5.259679,-18.3681 0,-19.18929 -15.587018,-34.75128 -34.807567,-34.75128 -19.220629,0 -34.807688,15.56199 -34.807688,34.75128 0,16.6192 11.692304,30.5149 27.309405,33.9397 l -14.95452,23.9797 -35.5601261,0 0,-23.1677 11.6041861,0 C 9.5695709,1010.3515 5.2504079,998.31972 5.2504079,985.2811 c 0,-31.98228 25.9786141,-57.91894 58.0129291,-57.91894 z m 0,46.33531 c 6.406183,0 11.602255,5.18733 11.602255,11.58363 0,6.3967 -5.196072,11.58403 -11.602255,11.58403 -6.406983,0 -11.602656,-5.18733 -11.602656,-11.58403 0,-6.3963 5.195673,-11.58363 11.602656,-11.58363"
       style="fill:#231f20;fill-opacity:1;fill-rule:evenodd;stroke:none"
       id="path3064"
       sodipodi:nodetypes="sscccccssscccccsscsssc" />
  </g>
</svg>
